{"title":"​​True Detective S02 Season 2 1080p 5.1Ch BluRay ReEnc-DeeJayAhm","uid":13281006,"size":6736707097,"categoryP":"video","categoryS":"hd___tv_shows","magnet":"?xt=urn:btih:761f5fd7b7ec1d3d5732c3c9b6cff4b0f6843b7f&amp;dn=%E2%80%8B%E2%80%8BTrue+Detective+S02+Season+2+1080p+5.1Ch+BluRay+ReEnc-DeeJayAhm&amp;tr=udp%3A%2F%2Ftracker.leechers-paradise.org%3A6969&amp;tr=udp%3A%2F%2Fzer0day.ch%3A1337&amp;tr=udp%3A%2F%2Fopen.demonii.com%3A1337&amp;tr=udp%3A%2F%2Ftracker.coppersurfer.tk%3A6969&amp;tr=udp%3A%2F%2Fexodus.desync.com%3A6969","seeders":1,"leechers":3,"uploader":"DeeJayPirate","files":18,"time":1453492167,"description":"DeeJayAhmed  \nhttps://www.DeeJayAhmed.com\r\r\nKeep Seeding!!=)) \r\nDo Comment On The A/V Quality Considering The Size Of The File..!\r\nHelp Me By Donating Bitcoins : 14i1UCWye2SCjoAHR5u6LDswWgAy55dxAv\r\n\r\nVideo \r\nID : 1 \r\nFormat : AVC \r\nFormat/Info : Advanced Video Codec \r\nFormat profile :    \r\nFormat settings, CABAC : Yes \r\nFormat settings, ReFrames : 4 frames \r\nCodec ID : V_MPEG4/ISO/AVC \r\nDuration : 1h 26mn \r\nBit rate : 1 576 Kbps \r\nWidth : 1 920 pixels \r\nHeight : 1 080 pixels \r\nDisplay aspect ratio : 16:9 \r\nFrame rate mode : Constant \r\nFrame rate : 23.976 (24000/1001) fps \r\nColor space : YUV \r\nChroma subsampling : 4:2:0 \r\nBit depth : 8 bits \r\nScan type : Progressive \r\nBits/(Pixel*Frame) : 0.032 \r\nStream size : 980 MiB (88%) \r\nDefault : Yes \r\nForced : No \r\n\r\nAudio \r\nID : 2 \r\nFormat : AAC \r\nFormat/Info : Advanced Audio Codec \r\nFormat profile : HE-AAC / LC \r\nCodec ID : A_AAC \r\nDuration : 1h 26mn \r\nBit rate : 220 Kbps \r\nChannel(s) : 6 channels \r\nChannel positions : Front: L C R, Side: L R, LFE \r\nSampling rate : 48.0 KHz / 24.0 KHz \r\nFrame rate : 23.438 fps (1024 spf) \r\nCompression mode : Lossy \r\nDelay relative to video : 31ms \r\nStream size : 137 MiB (12%) \r\nLanguage : English \r\nDefault : Yes \r\nForced : No","torrent":{"xt":"urn:btih:761f5fd7b7ec1d3d5732c3c9b6cff4b0f6843b7f","amp;dn":"%E2%80%8B%E2%80%8BTrue+Detective+S02+Season+2+1080p+5.1Ch+BluRay+ReEnc-DeeJayAhm","amp;tr":["udp%3A%2F%2Ftracker.leechers-paradise.org%3A6969","udp%3A%2F%2Fzer0day.ch%3A1337","udp%3A%2F%2Fopen.demonii.com%3A1337","udp%3A%2F%2Ftracker.coppersurfer.tk%3A6969","udp%3A%2F%2Fexodus.desync.com%3A6969"],"infoHash":"761f5fd7b7ec1d3d5732c3c9b6cff4b0f6843b7f","infoHashBuffer":{"type":"Buffer","data":[118,31,95,215,183,236,29,61,87,50,195,201,182,207,244,176,246,132,59,127]},"announce":[],"urlList":[]}}